<svg xmlns="http://www.w3.org/2000/svg" viewBox="0 0 340.291 379.664"><defs><linearGradient id="a" x1="1" y1=".5" x2="0" y2="-.5"><stop offset="0" stop-color="#06549B"/><stop offset=".55" stop-color="#2FA1D3"/><stop offset=".9" stop-color="#2FA1D3"/></linearGradient><linearGradient id="b" x1="0" y1=".6" x2="1" y2="-.75"><stop offset="0" stop-color="#1371B1"/><stop offset=".05" stop-color="#2FA1D3"/><stop offset=".45" stop-color="#2FA1D3"/><stop offset=".6" stop-color="#06569C"/></linearGradient><linearGradient id="c" x1="1" y1=".5" x2="0" y2="-.1"><stop offset="0" stop-color="#9D1A36"/><stop offset=".4" stop-color="#9D1A36"/><stop offset=".6" stop-color="#E6192F"/></linearGradient><linearGradient id="d" x1="0" y1=".6" x2="1" y2="-.75"><stop offset="0" stop-color="#A21C38"/><stop offset=".13" stop-color="#E6192F"/><stop offset=".45" stop-color="#E6192F"/><stop offset=".6" stop-color="#A71C37"/></linearGradient></defs><g fill="#0056a2" transform="matrix(1.044 0 0 1.044 -39.79 -39.808)"><path d="M85.154 100.157c-2.467 1.204-7.449 2.687-14.838 2.687-20.461 0-32.203-14.073-32.203-32.028 0-21.375 14.962-32.686 33.562-32.686 7.211 0 11.021 1.38 13.475 2.684l-2.273 12.783c-2.732-1.21-5.632-2.312-10.64-2.312-8.858 0-18.254 5.268-18.254 19.295 0 12.548 7.492 19.185 18.328 19.185 4.292 0 7.205-.842 10.567-2.385l2.276 12.777zM119.129 53.982c-5.512 0-10.846 2.499-13.562 6.513h-.167V38.354l-13.865 4.8v57.765H105.4V73.936c0-3.896 2.533-8.087 7.391-8.087 5.197 0 7.199 4.091 7.199 10.042v25.029h13.877V73.977c0-13.754-5.899-19.995-14.738-19.995zM154.783 82.696c.51 5.851 5.363 8.96 12.862 9.027 4.519.035 9.773-1.279 13.273-3.341l2.092 10.791c-5.268 2.646-11.286 3.671-17.412 3.671-16.504 0-25.35-9.926-25.35-25.133 0-14.71 9.512-24.202 23.766-24.202 14.69 0 21.275 10.816 21.275 24.368 0 1.428-.176 3.754-.334 4.819h-30.172m16.658-9.867c0-3.398-1.658-9.34-8.077-9.34-5.628 0-8.282 4.845-8.676 9.34h16.753zM201.587 100.919l-15.32-45.48h15.297l8.323 32.171h.28l8.324-32.171h15.303l-15.319 45.48h-16.888zM237.725 70.396c0-6.691-.21-11.056-.495-14.958h13.062l.396 8.454h.351c2.286-6.691 6.673-9.233 11.185-9.489 2.145-.125 3.306.027 4.634.284v13.298c-1.271-.249-3.793-.542-5.566-.379-5.336.491-8.565 4.372-9.471 8.84-.182.926-.276 1.954-.276 3.157v21.315H237.73V70.396h-.005zM315.584 78.176c0 14.906-8.981 24.667-23.534 24.667-14.556 0-23.543-9.761-23.543-24.667 0-14.908 8.987-24.668 23.543-24.668 14.553 0 23.534 9.761 23.534 24.668m-14.375 0c0-7.401-2.544-13.843-9.159-13.843-6.624 0-9.155 6.441-9.155 13.843 0 7.408 2.531 13.84 9.155 13.84 6.617 0 9.159-6.432 9.159-13.84zM321.75 69.939c0-5.676-.208-10.522-.501-14.5h13.062l.299 6.363h.28c1.809-2.959 6.596-7.82 14.065-7.82 9.141 0 15.108 6.241 15.108 19.629v27.309H350.21V75.701c0-5.852-2.008-9.853-7.021-9.853-3.844 0-6.231 2.703-7.117 5.294-.328.949-.462 2.238-.462 3.54v26.237h-13.86v-30.98z"/></g><path fill="url(#a)" d="M38.608 221.484v-108.47l162.746 54.238-162.746 54.232z" transform="matrix(1.044 0 0 1.044 -39.79 -39.808)"/><path fill="url(#b)" d="M38.649 221.492l162.705 54.232 162.696-54.232V113.027l-162.696 54.225-162.705 54.24z" transform="matrix(1.044 0 0 1.044 -39.79 -39.808)"/><path fill="url(#c)" d="M38.618 347.568l-.014-108.505 162.735 54.235-162.721 54.27z" transform="matrix(1.044 0 0 1.044 -39.79 -39.808)"/><path fill="url(#d)" d="M364.058 239.063l-162.75 54.218-162.672 54.267 162.703 54.246 162.719-54.263V239.063z" transform="matrix(1.044 0 0 1.044 -39.79 -39.808)"/></svg>